<svg width="385" height="386" viewBox="0 0 385 386" fill="none" xmlns="http://www.w3.org/2000/svg">
<path d="M84.7101 34.3117L95.5999 27.9088C97.244 26.9421 98.7518 26.2566 100.123 25.8525C101.504 25.4145 102.746 25.2301 103.85 25.2994C104.941 25.3473 105.892 25.6213 106.703 26.1213C107.515 26.6213 108.178 27.309 108.692 28.1844C109.358 29.3161 109.615 30.4866 109.464 31.696C109.313 32.9054 108.716 34.0896 107.674 35.2486C109.464 34.6272 111.083 34.5227 112.532 34.9349C113.99 35.3132 115.146 36.2283 116 37.6803C117.13 39.602 117.227 41.5995 116.291 43.6728C115.363 45.7122 113.181 47.7425 109.743 49.7638L97.8926 56.7317L84.7101 34.3117ZM96.5105 43.7519L101.124 51.5989L108.331 47.3617C109.932 46.4201 110.972 45.3779 111.449 44.2351C111.927 43.0924 111.789 41.8804 111.035 40.5993C110.232 39.2327 109.215 38.4803 107.984 38.3419C106.741 38.1821 105.318 38.5731 103.717 39.5147L96.5105 43.7519ZM101.344 37.6775C104.44 35.8571 105.235 33.6657 103.728 31.1034C103.063 29.9717 102.159 29.3392 101.017 29.2059C99.8847 29.0386 98.5496 29.407 97.0123 30.3109L90.7667 33.9832L95.0981 41.3498L101.344 37.6775ZM141.471 8.53126C143.259 8.02582 144.913 7.7769 146.434 7.78449C147.972 7.76151 149.337 7.99323 150.53 8.47966C151.716 8.94225 152.727 9.64763 153.561 10.5958C154.389 11.5201 154.998 12.6735 155.389 14.056C155.78 15.4384 155.868 16.752 155.654 17.9967C155.432 19.2176 154.941 20.3475 154.179 21.3866C153.411 22.4018 152.369 23.3142 151.054 24.1237C149.755 24.9027 148.212 25.5449 146.424 26.0503L138.737 28.2237L140.86 35.7319L135.676 37.1977L128.6 12.1704L141.471 8.53126ZM134.542 13.3861L137.979 25.5422L145.666 23.3688C147.549 22.8365 148.865 21.9367 149.614 20.6697C150.379 19.3721 150.469 17.6864 149.883 15.6127C149.296 13.5391 148.341 12.1618 147.016 11.4811C145.708 10.7698 144.112 10.6804 142.229 11.2128L134.542 13.3861ZM175.937 4.41764C174.679 4.52745 173.513 4.85289 172.442 5.39395C171.395 5.93286 170.504 6.69435 169.769 7.67842C169.035 8.66249 168.482 9.87933 168.111 11.3289C167.763 12.7517 167.672 14.4131 167.837 16.3132C168.003 18.2132 168.382 19.8461 168.974 21.2117C169.588 22.5505 170.342 23.6409 171.236 24.4829C172.13 25.3248 173.139 25.9205 174.263 26.2699C175.413 26.6172 176.616 26.736 177.875 26.6261C179.133 26.5163 180.286 26.192 181.333 25.6531C182.405 25.112 183.308 24.3494 184.043 23.3654C184.777 22.3813 185.319 21.1779 185.667 19.7551C186.038 18.3055 186.14 16.6307 185.974 14.7306C185.809 12.8306 185.419 11.2111 184.805 9.87233C184.213 8.5067 183.47 7.4029 182.576 6.56094C181.682 5.71898 180.661 5.12436 179.512 4.77708C178.387 4.42765 177.196 4.30783 175.937 4.41764ZM175.711 1.82665C177.932 1.63287 179.969 1.7535 181.822 2.18855C183.699 2.62144 185.331 3.3618 186.715 4.40961C188.124 5.45527 189.261 6.79821 190.125 8.43842C190.989 10.0786 191.518 12.0092 191.712 14.23C191.905 16.4509 191.719 18.4438 191.152 20.2089C190.585 21.974 189.698 23.4935 188.491 24.7674C187.309 26.0391 185.831 27.0508 184.057 27.8024C182.307 28.5518 180.322 29.0234 178.101 29.2171C175.88 29.4109 173.831 29.2914 171.953 28.8585C170.075 28.4256 168.432 27.6863 167.023 26.6406C165.639 25.5928 164.514 24.2488 163.65 22.6086C162.811 20.9662 162.294 19.0346 162.1 16.8138C161.907 14.5929 162.081 12.601 162.623 10.8381C163.19 9.073 164.065 7.55459 165.247 6.28285C166.453 5.00895 167.944 3.99622 169.718 3.24467C171.493 2.49311 173.49 2.02044 175.711 1.82665ZM209.86 4.39826C208.085 4.22976 206.396 4.3307 204.793 4.7011C203.218 5.04918 201.67 5.76066 200.149 6.83555L198.696 4.45826C200.216 3.38337 201.983 2.59314 203.996 2.08758C206.01 1.58201 208.176 1.43923 210.494 1.65923C212.392 1.83944 214.04 2.17002 215.438 2.65099C216.835 3.13196 217.986 3.72632 218.889 4.43407C219.792 5.14183 220.438 5.93714 220.827 6.82001C221.241 7.70523 221.402 8.62869 221.311 9.59039C221.161 11.1686 220.655 12.4392 219.792 13.4024C218.931 14.3408 217.636 15.0141 215.905 15.4221C217.71 16.0661 219.078 16.9921 220.008 18.2001C220.966 19.3857 221.36 20.8663 221.192 22.6417C221.091 23.7021 220.737 24.6762 220.13 25.5641C219.551 26.4296 218.686 27.1562 217.535 27.7437C216.411 28.3088 214.993 28.7091 213.278 28.9445C211.564 29.1799 209.523 29.1853 207.156 28.9606C204.739 28.7312 202.544 28.1372 200.57 27.1785C198.62 26.2222 197.005 25.0238 195.723 23.5835L197.783 21.5397C199.065 22.98 200.467 24.071 201.989 24.8126C203.513 25.5296 205.2 25.9758 207.049 26.1513C208.48 26.2871 209.712 26.2796 210.746 26.129C211.783 25.9537 212.632 25.661 213.293 25.251C213.979 24.8434 214.499 24.3453 214.853 23.7569C215.21 23.1439 215.423 22.4675 215.493 21.7277C215.634 20.2481 215.273 19.0694 214.411 18.1913C213.551 17.2887 212.147 16.7449 210.199 16.56L202.431 15.8228L202.695 13.0486L209.723 13.7156C213.298 14.055 215.238 12.6218 215.542 9.41614C215.666 8.10921 215.237 6.99855 214.254 6.08417C213.273 5.14512 211.808 4.58315 209.86 4.39826ZM244.45 8.76664C246.242 9.25664 247.787 9.89746 249.086 10.6891C250.415 11.4634 251.464 12.3668 252.235 13.3992C253.012 14.4077 253.513 15.5334 253.738 16.7762C253.97 17.9951 253.896 19.2974 253.517 20.6832C253.138 22.069 252.536 23.2396 251.71 24.1949C250.89 25.1263 249.886 25.8404 248.697 26.3371C247.515 26.8099 246.152 27.0534 244.607 27.0676C243.093 27.0644 241.44 26.8178 239.648 26.3278L231.942 24.2208L229.884 31.747L224.688 30.326L231.548 5.23862L244.45 8.76664ZM236.009 9.34756L232.677 21.5328L240.383 23.6399C242.27 24.156 243.862 24.0647 245.157 23.3661C246.483 22.65 247.43 21.2527 247.998 19.174C248.567 17.0954 248.459 15.4225 247.676 14.1554C246.923 12.871 245.602 11.9707 243.715 11.4546L236.009 9.34756ZM276.112 23.0696C274.978 22.5125 273.813 22.1883 272.616 22.0969C271.441 22.0165 270.285 22.2073 269.147 22.6694C268.009 23.1315 266.906 23.8869 265.839 24.9356C264.805 25.9731 263.868 27.3477 263.026 29.0595C262.185 30.7713 261.665 32.3646 261.465 33.8393C261.297 35.3027 261.379 36.6259 261.708 37.809C262.038 38.992 262.593 40.0239 263.375 40.9047C264.179 41.7964 265.147 42.5208 266.281 43.0778C267.415 43.6349 268.569 43.9537 269.744 44.0341C270.941 44.1255 272.108 43.9401 273.246 43.478C274.384 43.0159 275.47 42.2662 276.504 41.2287C277.571 40.18 278.525 38.7997 279.367 37.0879C280.208 35.3761 280.712 33.7885 280.879 32.3251C281.079 30.8504 281.014 29.5215 280.685 28.3385C280.355 27.1554 279.789 26.1181 278.985 25.2264C278.203 24.3456 277.246 23.6267 276.112 23.0696ZM277.259 20.7353C279.26 21.7184 280.94 22.8754 282.301 24.2063C283.684 25.5482 284.697 27.0255 285.34 28.6384C286.004 30.2622 286.282 31.9995 286.173 33.8502C286.064 35.7009 285.518 37.6267 284.535 39.6275C283.552 41.6284 282.362 43.2374 280.963 44.4546C279.565 45.6718 278.02 46.5133 276.328 46.9793C274.659 47.4562 272.87 47.5572 270.963 47.2825C269.078 47.0186 267.135 46.3952 265.134 45.4121C263.133 44.429 261.441 43.2666 260.059 41.9247C258.676 40.5829 257.652 39.1 256.987 37.4762C256.344 35.8634 256.077 34.1316 256.186 32.2808C256.317 30.441 256.875 28.5207 257.858 26.5199C258.841 24.5191 260.02 22.9046 261.397 21.6765C262.795 20.4593 264.329 19.6122 265.998 19.1354C267.69 18.6694 269.489 18.5738 271.397 18.8486C273.304 19.1233 275.258 19.7522 277.259 20.7353ZM302.874 49.4474C304.398 50.5933 305.623 51.7464 306.548 52.9066C307.474 54.0668 308.114 55.2143 308.469 56.3491C308.825 57.4839 308.901 58.5788 308.696 59.6338C308.527 60.6839 308.092 61.6742 307.393 62.6049C306.693 63.5355 305.855 64.2381 304.879 64.7126C303.937 65.1823 302.872 65.4041 301.683 65.3781C300.494 65.3521 299.214 65.056 297.842 64.4898C296.47 63.9237 295.022 63.0676 293.498 61.9216L282.508 53.6619L298.135 32.8714L315.955 46.2656L314.281 48.4932L300.767 38.3359L296.191 44.4245L302.874 49.4474ZM294.517 46.6521L288.489 54.6713L295.172 59.6941C296.598 60.7656 297.977 61.26 299.309 61.1771C300.677 61.0894 301.837 60.4119 302.789 59.1447C303.742 57.8774 304.063 56.5848 303.752 55.2667C303.476 53.9437 302.625 52.7464 301.199 51.6749L294.517 46.6521ZM326.738 90.589L320.302 96.4894L317.289 93.203L321.169 88.6379L305.476 71.521L324.647 53.9452L328.288 57.9163L311.171 73.609L320.963 84.29L338.08 68.5973L341.721 72.5684L324.604 88.2611L326.738 90.589ZM330.245 100.066L327.148 95.6579L348.431 80.7083L351.528 85.1168L330.245 100.066ZM337.706 107.246C337.074 107.637 336.379 107.761 335.621 107.619C334.896 107.484 334.313 107.059 333.87 106.343C333.427 105.626 333.3 104.904 333.49 104.175C333.714 103.454 334.141 102.898 334.773 102.507C335.405 102.116 336.083 101.988 336.807 102.122C337.566 102.265 338.166 102.694 338.609 103.41C339.039 104.106 339.149 104.824 338.938 105.566C338.748 106.295 338.338 106.855 337.706 107.246ZM352.667 139.589L352.785 139.941L376.993 142.007L379.535 149.58L354.878 157.855L353.164 152.747L372.889 146.127L372.771 145.775L350.209 143.941L348.199 137.953L365.087 122.88L364.969 122.527L345.244 129.147L343.53 124.04L368.186 115.765L370.728 123.338L352.667 139.589ZM358.155 184.044L379.219 181.846L379.18 181.476L356.67 169.817L355.938 162.795L381.806 160.096L382.365 165.454L361.301 167.652L361.34 168.022L383.849 179.682L384.582 186.703L358.714 189.402L358.155 184.044ZM353.306 245.929L344.742 244.229L345.61 239.856L351.585 240.284L358.095 207.484L383.606 212.548L382.557 217.832L359.78 213.311L357.899 222.787L380.677 227.308L379.628 232.592L356.85 228.071L354.97 237.547L377.747 242.067L376.698 247.352L353.921 242.831L353.306 245.929ZM368.492 263.241L360.64 259.87L355.291 272.333L352.73 271.234L358.079 258.771L349.714 255.181L342.9 271.058L340.339 269.959L349.278 249.131L373.178 259.389L364.239 280.216L361.678 279.117L368.492 263.241ZM336.6 321.151L324.239 294.359L327.709 289.763L331.325 297.614L333.116 295.242L354.175 297.874L350.481 302.766L333.062 300.555L332.838 300.852L340.07 316.555L336.6 321.151ZM323.557 330.905C324.853 329.68 325.889 328.342 326.665 326.892C327.441 325.477 327.924 323.843 328.116 321.991L330.863 322.462C330.671 324.314 330.102 326.164 329.157 328.013C328.212 329.861 326.894 331.585 325.202 333.185C323.816 334.496 322.483 335.519 321.201 336.254C319.918 336.989 318.714 337.464 317.586 337.677C316.459 337.891 315.435 337.854 314.514 337.566C313.576 337.294 312.775 336.807 312.111 336.106C311.022 334.954 310.398 333.736 310.241 332.453C310.102 331.187 310.448 329.769 311.28 328.198C309.607 329.132 308.009 329.552 306.488 329.457C304.965 329.397 303.591 328.719 302.365 327.424C301.634 326.65 301.133 325.742 300.864 324.701C300.595 323.695 300.617 322.565 300.932 321.312C301.247 320.095 301.88 318.763 302.831 317.318C303.782 315.872 305.122 314.333 306.85 312.699C308.613 311.031 310.506 309.77 312.527 308.915C314.53 308.077 316.496 307.65 318.424 307.633L318.606 310.53C316.678 310.546 314.934 310.883 313.374 311.54C311.83 312.216 310.384 313.192 309.034 314.468C307.991 315.455 307.185 316.388 306.617 317.266C306.067 318.161 305.728 318.993 305.601 319.76C305.457 320.545 305.489 321.264 305.699 321.918C305.926 322.59 306.294 323.196 306.805 323.736C307.826 324.816 308.951 325.321 310.179 325.25C311.425 325.197 312.758 324.498 314.18 323.153L319.849 317.792L321.764 319.817L316.635 324.667C314.025 327.135 313.827 329.539 316.04 331.878C316.942 332.832 318.061 333.24 319.396 333.102C320.749 332.982 322.136 332.25 323.557 330.905ZM303.195 347.172L289.899 328.133L294.316 325.048L309.207 346.372L291.539 358.71L289.944 356.426L303.195 347.172ZM273.898 365.11C275.036 364.562 276.011 363.845 276.822 362.96C277.611 362.086 278.175 361.059 278.514 359.879C278.853 358.698 278.94 357.365 278.774 355.878C278.597 354.424 278.095 352.837 277.268 351.119C276.441 349.4 275.51 348.006 274.473 346.938C273.426 345.903 272.335 345.15 271.201 344.678C270.067 344.207 268.912 344.006 267.737 344.077C266.539 344.159 265.371 344.473 264.233 345.021C263.094 345.569 262.131 346.28 261.342 347.154C260.531 348.039 259.956 349.072 259.616 350.252C259.277 351.432 259.196 352.749 259.373 354.203C259.539 355.69 260.035 357.293 260.862 359.012C261.689 360.731 262.627 362.107 263.674 363.143C264.711 364.211 265.796 364.981 266.93 365.452C268.064 365.924 269.229 366.119 270.427 366.037C271.603 365.966 272.76 365.657 273.898 365.11ZM275.026 367.453C273.017 368.42 271.069 369.027 269.181 369.275C267.272 369.534 265.485 369.419 263.819 368.928C262.131 368.448 260.593 367.594 259.205 366.365C257.817 365.136 256.639 363.518 255.673 361.509C254.706 359.5 254.176 357.57 254.082 355.718C253.989 353.866 254.281 352.132 254.959 350.513C255.615 348.906 256.64 347.437 258.034 346.106C259.406 344.787 261.096 343.644 263.105 342.677C265.114 341.711 267.073 341.098 268.982 340.839C270.892 340.58 272.691 340.69 274.378 341.17C276.044 341.661 277.571 342.52 278.959 343.749C280.325 344.989 281.491 346.613 282.458 348.622C283.424 350.631 283.965 352.555 284.082 354.396C284.175 356.248 283.894 357.977 283.238 359.585C282.56 361.203 281.524 362.677 280.13 364.008C278.736 365.338 277.034 366.487 275.026 367.453ZM248.604 353.038C247.885 353.225 247.313 353.733 246.889 354.56C246.441 355.394 246.322 356.41 246.532 357.61L249.968 376.68L229.834 381.929L223.976 359.458L220.92 360.255L218.717 351.806L223.032 350.681L225.25 356.246L244.665 351.185L243.885 345.245L248.199 344.12L250.402 352.569L248.604 353.038ZM241.499 358.922C241.384 358.286 241.396 357.694 241.535 357.146C241.674 356.598 241.858 356.127 242.088 355.735C242.348 355.257 242.662 354.843 243.031 354.491L229.189 358.099L234.344 377.873L244.411 375.249L241.499 358.922ZM201.056 384.488L195.671 384.654L195.311 372.956L190.298 373.11L183.973 385.014L178.031 385.197L185.064 372.156L176.674 359.218L182.802 359.03L190.027 370.331L195.226 370.171L194.872 358.658L200.256 358.492L200.611 370.005L205.81 369.845L212.326 358.121L218.454 357.932L210.875 371.362L218.697 383.946L212.755 384.129L205.71 372.636L200.696 372.79L201.056 384.488ZM142.998 379.453L161.458 356.436L167.12 357.49L161.707 364.23L164.629 364.774L171.672 384.794L165.645 383.671L159.851 367.097L159.485 367.029L148.66 380.508L142.998 379.453ZM130.384 349.547C128.809 348.951 127.202 348.646 125.564 348.635C123.894 348.638 122.167 349.003 120.381 349.73L119.434 346.988C121.219 346.26 123.186 345.893 125.334 345.886C127.483 345.879 129.611 346.274 131.719 347.073C133.896 347.898 135.759 348.922 137.309 350.145C138.836 351.359 140.018 352.748 140.856 354.31C141.671 355.864 142.112 357.567 142.178 359.42C142.244 361.273 141.882 363.242 141.092 365.326C140.303 367.411 139.28 369.13 138.026 370.482C136.749 371.826 135.302 372.814 133.685 373.446C132.045 374.069 130.262 374.334 128.338 374.241C126.413 374.147 124.408 373.705 122.324 372.915C120.216 372.117 118.36 371.003 116.756 369.574C115.152 368.145 113.922 366.567 113.067 364.839L115.594 363.412C116.449 365.14 117.505 366.547 118.763 367.633C119.988 368.733 121.389 369.581 122.964 370.178C124.145 370.626 125.311 370.869 126.462 370.908C127.613 370.946 128.722 370.744 129.791 370.302C130.827 369.873 131.811 369.2 132.742 368.281C133.649 367.353 134.451 366.147 135.146 364.662L122.012 359.686L123 357.08L136.133 362.056C136.637 360.446 136.861 358.982 136.805 357.662C136.725 356.334 136.432 355.15 135.926 354.111C135.387 353.086 134.655 352.186 133.73 351.411C132.773 350.651 131.658 350.03 130.384 349.547ZM101.002 335.563L100.69 335.361L80.4741 348.838L73.7656 344.501L87.8859 322.66L92.4102 325.585L81.114 343.058L81.426 343.259L100.211 330.627L105.515 334.057L101.707 356.371L102.019 356.573L113.316 339.1L117.84 342.025L103.72 363.866L97.0112 359.529L101.002 335.563ZM56.8462 326.257C57.7299 327.16 58.7209 327.853 59.8192 328.338C60.9002 328.805 62.0541 329.01 63.2808 328.953C64.5076 328.896 65.7987 328.551 67.1542 327.917C68.4746 327.283 69.8163 326.299 71.1793 324.965C72.5423 323.631 73.5637 322.302 74.2434 320.978C74.8881 319.653 75.252 318.379 75.3352 317.153C75.4183 315.928 75.238 314.77 74.7943 313.68C74.3332 312.571 73.6608 311.565 72.7771 310.663C71.8934 309.76 70.9111 309.075 69.8301 308.608C68.7318 308.124 67.5692 307.91 66.3425 307.967C65.1158 308.024 63.8422 308.369 62.5217 309.003C61.1662 309.637 59.807 310.621 58.444 311.955C57.0811 313.289 56.0772 314.618 55.4325 315.943C54.7528 317.266 54.3713 318.541 54.2882 319.766C54.205 320.992 54.394 322.158 54.8551 323.267C55.2988 324.357 55.9626 325.354 56.8462 326.257ZM54.9876 328.076C53.4282 326.483 52.2285 324.833 51.3884 323.125C50.5311 321.399 50.0679 319.669 49.9988 317.934C49.9124 316.181 50.2287 314.451 50.9476 312.742C51.6664 311.033 52.8224 309.399 54.4155 307.839C56.0086 306.28 57.6671 305.159 59.3909 304.477C61.1148 303.795 62.8518 303.515 64.6021 303.639C66.335 303.745 68.055 304.245 69.762 305.139C71.4517 306.016 73.0763 307.25 74.6357 308.843C76.1951 310.436 77.4035 312.096 78.2609 313.822C79.1183 315.547 79.5901 317.286 79.6765 319.039C79.7456 320.774 79.4207 322.496 78.7018 324.205C77.9656 325.896 76.8009 327.521 75.2078 329.08C73.6147 330.64 71.9649 331.77 70.2584 332.469C68.5346 333.152 66.8062 333.44 65.0732 333.334C63.323 333.21 61.5943 332.701 59.8873 331.807C58.1803 330.913 56.5471 329.669 54.9876 328.076ZM51.2058 286.382C50.8495 285.73 50.2186 285.298 49.3131 285.087C48.3957 284.855 47.3806 284.986 46.268 285.481L28.6003 293.439L18.6247 275.18L39.0035 264.047L37.4894 261.275L45.1518 257.089L47.2894 261.002L42.4287 264.504L52.048 282.111L57.6213 279.913L59.7589 283.826L52.0965 288.012L51.2058 286.382ZM43.7741 280.916C44.363 280.65 44.9402 280.519 45.5056 280.52C46.0709 280.522 46.5721 280.587 47.0091 280.715C47.535 280.851 48.0136 281.055 48.4447 281.328L41.5865 268.774L23.6531 278.572L28.6409 287.702L43.7741 280.916ZM14.6883 258.459L22.7934 255.751L18.4954 242.888L21.1384 242.005L25.4364 254.867L34.0701 251.982L28.5945 235.596L31.2375 234.713L38.4204 256.209L13.7528 264.452L6.56982 242.956L9.21279 242.073L14.6883 258.459ZM3.56872 212.251L5.29782 222.132L28.172 218.13L29.1006 223.437L6.22641 227.439L7.9555 237.321L5.21059 237.801L0.823817 212.731L3.56872 212.251ZM17.6781 201.465L17.5394 189.948L3.86024 195.686L3.86472 196.058L17.6781 201.465ZM0.653077 191.638L26.532 180.736L26.5964 186.086L20.3101 188.614L20.4802 202.732L26.8256 205.108L26.8901 210.458L0.756022 200.183L0.653077 191.638ZM24.4568 179.285L24.6456 178.187C24.7715 177.454 24.5776 176.755 24.0639 176.089C23.5501 175.422 22.5693 174.914 21.1214 174.565L1.93441 169.946L5.68038 148.159L31.3127 152.566L30.3998 157.875L7.51381 153.941L5.53065 165.475L22.0028 169.438C24.3657 170.02 25.9835 170.99 26.8562 172.346C27.7086 173.674 27.9607 175.351 27.6123 177.377C27.5032 178.012 27.3456 178.563 27.1396 179.03C27.0446 179.29 26.9437 179.512 26.8369 179.694L24.4568 179.285ZM34.0693 142.403L32.5024 147.557L7.6183 139.993L9.18519 134.839L34.0693 142.403ZM35.1528 132.104C35.8493 132.363 36.3739 132.836 36.7266 133.522C37.0647 134.176 37.087 134.898 36.7935 135.687C36.5 136.477 36.0072 137.02 35.3152 137.318C34.6085 137.584 33.907 137.587 33.2105 137.328C32.5139 137.069 31.9966 136.613 31.6585 135.958C31.3058 135.272 31.2762 134.535 31.5697 133.745C31.8546 132.979 32.3546 132.451 33.0699 132.162C33.762 131.865 34.4562 131.845 35.1528 132.104ZM38.8252 123.43C39.5061 123.727 40.0035 124.229 40.3173 124.933C40.6183 125.605 40.6003 126.327 40.2631 127.099C39.9259 127.871 39.4036 128.386 38.6959 128.645C37.9756 128.87 37.2749 128.835 36.5939 128.537C35.913 128.24 35.422 127.755 35.121 127.083C34.8072 126.378 34.8189 125.64 35.156 124.868C35.4833 124.119 36.012 123.62 36.7424 123.371C37.45 123.113 38.1442 123.132 38.8252 123.43ZM42.9762 114.975C43.6395 115.31 44.1081 115.838 44.3821 116.559C44.6451 117.247 44.5867 117.967 44.207 118.718C43.8273 119.47 43.2769 119.955 42.556 120.174C41.8241 120.359 41.1265 120.284 40.4633 119.949C39.8 119.614 39.3368 119.103 39.0738 118.415C38.7998 117.694 38.8527 116.957 39.2325 116.205C39.601 115.476 40.1568 115.007 40.8999 114.8C41.6208 114.581 42.3129 114.64 42.9762 114.975Z" fill="black"/>
</svg>
