<svg width="314" height="62" viewBox="0 0 314 62" fill="none" xmlns="http://www.w3.org/2000/svg">
<g clip-path="url(#clip0_6_357)">
<path d="M280.585 4.37891H290.264V16.2186L300.412 4.37891H313.274L301.865 16.1973L313.787 35.7093H301.865L295.264 22.8224L290.264 28.0584V35.7093H280.585V4.37891Z" fill="white"/>
<path d="M264.475 4.37891H274.133V23.0574C274.133 24.9097 273.841 26.6621 273.256 28.3148C272.687 29.9533 271.783 31.3923 270.543 32.6318C269.318 33.8571 268.029 34.7191 266.676 35.2178C264.796 35.9159 262.538 36.265 259.904 36.265C258.379 36.265 256.712 36.1581 254.903 35.9444C253.109 35.7306 251.607 35.3104 250.395 34.6835C249.184 34.0423 248.073 33.1377 247.062 31.9694C246.066 30.801 245.381 29.5971 245.011 28.3575C244.413 26.363 244.113 24.5963 244.113 23.0574V4.37891H253.771V23.5063C253.771 25.216 254.241 26.5552 255.181 27.5241C256.136 28.4787 257.454 28.9559 259.134 28.9559C260.8 28.9559 262.104 28.4857 263.043 27.5454C263.997 26.5908 264.475 25.2444 264.475 23.5063V4.37891Z" fill="white"/>
<path d="M210.933 35.7093V4.37891H227.064C230.054 4.37891 232.342 4.63536 233.923 5.14827C235.504 5.66119 236.778 6.61577 237.747 8.01204C238.715 9.39399 239.199 11.0825 239.199 13.077C239.199 14.8153 238.829 16.3183 238.088 17.5864C237.349 18.8402 236.329 19.8589 235.034 20.6426C234.208 21.1412 233.075 21.5544 231.636 21.8821C232.791 22.2668 233.631 22.6514 234.157 23.0361C234.513 23.2926 235.026 23.8411 235.696 24.6817C236.379 25.5222 236.836 26.1706 237.062 26.6265L241.742 35.7093H230.803L225.632 26.1349C224.978 24.8954 224.393 24.0904 223.88 23.7201C223.182 23.2355 222.392 22.9933 221.509 22.9933H220.654V35.7093H210.933ZM220.654 17.0735H224.736C225.177 17.0735 226.031 16.931 227.298 16.6461C227.941 16.5179 228.46 16.1902 228.858 15.663C229.272 15.1359 229.478 14.5303 229.478 13.8464C229.478 12.8349 229.158 12.0584 228.517 11.5169C227.875 10.9756 226.673 10.7048 224.906 10.7048H220.654V17.0735Z" fill="white"/>
<path d="M176.875 4.37891H191.255C194.089 4.37891 196.376 4.76359 198.114 5.53296C199.866 6.30233 201.311 7.40651 202.451 8.84551C203.59 10.2845 204.416 11.9587 204.929 13.8678C205.442 15.777 205.699 17.8001 205.699 19.9373C205.699 23.2855 205.314 25.8856 204.544 27.7378C203.789 29.5758 202.736 31.1216 201.383 32.3753C200.029 33.6149 198.577 34.4413 197.024 34.8545C194.902 35.4244 192.978 35.7093 191.255 35.7093H176.875V4.37891ZM186.554 11.4741V28.5926H188.927C190.949 28.5926 192.387 28.3719 193.243 27.9301C194.096 27.4742 194.766 26.6905 195.25 25.5793C195.734 24.4538 195.977 22.6371 195.977 20.1296C195.977 16.8099 195.436 14.5375 194.354 13.3121C193.27 12.0868 191.476 11.4741 188.969 11.4741H186.554Z" fill="#D40000"/>
<path d="M113.992 13.4415L105.766 11.9669C106.45 9.34528 107.761 7.33636 109.698 5.9401C111.649 4.54385 114.405 3.8457 117.966 3.8457C122.054 3.8457 125.01 4.60795 126.833 6.13245C128.656 7.65694 129.568 9.57316 129.568 11.8813C129.568 13.2349 129.198 14.4601 128.457 15.5572C127.716 16.6543 126.598 17.616 125.102 18.4423C126.313 18.7416 127.239 19.0906 127.88 19.4895C128.92 20.1306 129.725 20.9784 130.294 22.0327C130.878 23.0728 131.17 24.3195 131.17 25.7726C131.17 27.5964 130.693 29.3488 129.739 31.03C128.784 32.697 127.41 33.9865 125.615 34.8983C123.82 35.7958 121.463 36.2447 118.543 36.2447C115.694 36.2447 113.444 35.9098 111.792 35.2402C110.154 34.5706 108.8 33.5947 107.732 32.3123C106.678 31.0158 105.866 29.3916 105.296 27.4396L113.992 26.2856C114.334 28.038 114.861 29.2563 115.573 29.9401C116.3 30.6097 117.219 30.9446 118.329 30.9446C119.497 30.9446 120.466 30.5172 121.235 29.6623C122.019 28.8074 122.41 27.6677 122.41 26.2429C122.41 24.7896 122.033 23.664 121.278 22.8662C120.537 22.0683 119.526 21.6695 118.244 21.6695C117.56 21.6695 116.62 21.8404 115.424 22.1823L115.872 15.9632C116.357 16.0344 116.734 16.0701 117.005 16.0701C118.144 16.0701 119.091 15.7069 119.846 14.9801C120.616 14.2536 121 13.3915 121 12.3943C121 11.4397 120.715 10.6774 120.146 10.1075C119.576 9.53754 118.792 9.25273 117.795 9.25273C116.77 9.25273 115.937 9.56616 115.296 10.193C114.655 10.8057 114.22 11.8885 113.992 13.4415Z" fill="white"/>
<path d="M73.0341 4.37891H87.4132C90.2478 4.37891 92.5339 4.76359 94.2717 5.53296C96.0236 6.30233 97.4693 7.40651 98.6089 8.84551C99.7484 10.2845 100.574 11.9587 101.087 13.8678C101.6 15.777 101.856 17.8001 101.856 19.9373C101.856 23.2855 101.472 25.8856 100.703 27.7378C99.9478 29.5758 98.8938 31.1216 97.5406 32.3753C96.1875 33.6149 94.7346 34.4413 93.182 34.8545C91.0597 35.4244 89.1367 35.7093 87.4132 35.7093H73.0341V4.37891ZM82.7127 11.4741V28.5926H85.0843C87.107 28.5926 88.5456 28.3719 89.4003 27.9301C90.2549 27.4742 90.9244 26.6905 91.4086 25.5793C91.8929 24.4538 92.135 22.6371 92.135 20.1296C92.135 16.8099 91.5938 14.5375 90.5112 13.3121C89.4287 12.0868 87.634 11.4741 85.1271 11.4741H82.7127Z" fill="#D40000"/>
<path d="M41.2632 4.37891H67.2012V11.0681H50.9633V16.0477H66.0261V22.4377H50.9633V28.614H67.6713V35.7093H41.2632V4.37891Z" fill="#D40000"/>
<path d="M-0.143478 4.37891H12.5905L17.5047 23.4421L22.3974 4.37891H35.0886V35.7093H27.1832V11.8162L21.0513 35.7093H13.8938L7.7832 11.8162V35.7093H-0.143478V4.37891Z" fill="#D40000"/>
<path d="M134.556 25.4601C134.343 25.4601 134.171 25.2873 134.171 25.0742V12.0949C134.171 11.8818 134.343 11.709 134.556 11.709H145.916C146.13 11.709 146.302 11.8818 146.302 12.0949V25.0742C146.302 25.2873 146.13 25.4601 145.916 25.4601H134.556Z" fill="white"/>
<path d="M161.744 27.5402C161.744 27.3271 161.572 27.1543 161.359 27.1543H148.359C148.146 27.1543 147.974 27.3271 147.974 27.5402V38.9031C147.974 39.1162 148.146 39.289 148.359 39.289H161.359C161.572 39.289 161.744 39.1162 161.744 38.9031V27.5402Z" fill="white"/>
<path d="M173.876 25.0969C173.876 25.31 173.702 25.4828 173.489 25.4828H148.359C148.146 25.4828 147.974 25.31 147.974 25.0969V-0.0398486C147.974 -0.252992 148.146 -0.425781 148.359 -0.425781H161.359C161.572 -0.425781 161.744 -0.252992 161.744 -0.0398486V11.323C161.744 11.5362 161.917 11.709 162.13 11.709H173.489C173.702 11.709 173.876 11.8818 173.876 12.0949V25.0969Z" fill="#D40000"/>
<path d="M305.397 59.2152V56.8046H305.954C306.282 56.8046 306.54 56.7786 306.731 56.7265C306.924 56.6707 307.073 56.574 307.176 56.4362C307.285 56.295 307.376 56.0978 307.45 55.8448L307.561 55.5099L303.277 47.6309H306.446L308.834 52.2735L310.663 47.6309H313.787L309.859 56.5591C309.645 57.0278 309.388 57.465 309.089 57.8703C308.793 58.2722 308.423 58.5977 307.98 58.8468C307.537 59.0924 306.989 59.2152 306.335 59.2152H305.397Z" fill="white"/>
<path d="M299.019 59.0589L295.516 54.4386H295.081V59.0589H291.979V47.6309H295.081V51.9388H295.483L298.762 47.6309H302.667L298.316 53.1217L302.914 59.0589H299.019Z" fill="white"/>
<path d="M282.585 59.2152V56.8046H283.142C283.469 56.8046 283.728 56.7786 283.918 56.7265C284.112 56.6707 284.261 56.574 284.364 56.4362C284.472 56.295 284.564 56.0978 284.638 55.8448L284.749 55.5099L280.465 47.6309H283.634L286.021 52.2735L287.851 47.6309H290.975L287.047 56.5591C286.833 57.0278 286.575 57.465 286.277 57.8703C285.98 58.2722 285.611 58.5977 285.168 58.8468C284.725 59.0924 284.177 59.2152 283.523 59.2152H282.585Z" fill="white"/>
<path d="M270.624 59.0589V47.6309H275.556C276.404 47.6309 277.146 47.7983 277.782 48.1332C278.417 48.4679 278.911 48.9385 279.266 49.5449C279.619 50.1512 279.796 50.86 279.796 51.6709C279.796 52.4894 279.613 53.198 279.249 53.797C278.889 54.3958 278.38 54.8571 277.726 55.1808C277.075 55.5045 276.314 55.6663 275.445 55.6663H272.498V53.2557H274.819C275.184 53.2557 275.495 53.1923 275.751 53.0658C276.011 52.9357 276.21 52.7515 276.347 52.5134C276.489 52.2754 276.56 51.9945 276.56 51.6709C276.56 51.3436 276.489 51.0646 276.347 50.8339C276.21 50.5995 276.011 50.421 275.751 50.2983C275.495 50.1718 275.184 50.1085 274.819 50.1085H273.727V59.0589H270.624Z" fill="white"/>
<path d="M257.481 61.8044V56.6707H258.284C258.552 56.507 258.794 56.2764 259.009 55.9788C259.229 55.6811 259.415 55.2551 259.567 54.7009C259.724 54.1466 259.838 53.4044 259.913 52.4745L260.293 47.6309H268.371V56.6707H269.575V61.8044H266.585V59.0589H260.471V61.8044H257.481ZM261.832 56.6707H265.381V50.1308H263.081L262.903 52.4745C262.851 53.1738 262.771 53.7857 262.663 54.3103C262.559 54.831 262.434 55.285 262.29 55.6718C262.148 56.0549 261.996 56.388 261.832 56.6707Z" fill="white"/>
<path d="M256.072 52.1836V54.5049H250.716V52.1836H256.072Z" fill="white"/>
<path d="M243.279 59.0589H238.883V47.6309H243.235C244.41 47.6309 245.425 47.8597 246.28 48.3172C247.14 48.7712 247.802 49.4259 248.266 50.2815C248.735 51.1334 248.969 52.1545 248.969 53.3449C248.969 54.5354 248.736 55.5584 248.272 56.414C247.807 57.2658 247.149 57.9206 246.297 58.3781C245.446 58.8321 244.44 59.0589 243.279 59.0589ZM241.986 56.4251H243.168C243.733 56.4251 244.215 56.3339 244.612 56.1517C245.014 55.9694 245.318 55.655 245.527 55.2087C245.74 54.7622 245.845 54.141 245.845 53.3449C245.845 52.5489 245.737 51.9275 245.522 51.4812C245.309 51.0347 244.997 50.7204 244.585 50.5382C244.175 50.3558 243.673 50.2648 243.078 50.2648H241.986V56.4251Z" fill="white"/>
<path d="M232.768 59.2152C231.868 59.2152 231.068 59.0607 230.369 58.7519C229.674 58.4394 229.126 58.0099 228.729 57.4629C228.33 56.9161 228.131 56.2874 228.126 55.5769H231.251C231.254 55.7964 231.321 55.9935 231.451 56.1684C231.585 56.3395 231.768 56.4735 231.998 56.5701C232.229 56.6669 232.492 56.7152 232.791 56.7152C233.077 56.7152 233.329 56.665 233.549 56.5646C233.768 56.4604 233.94 56.3171 234.061 56.1349C234.185 55.9526 234.244 55.7443 234.241 55.5099C234.244 55.2793 234.174 55.0747 234.028 54.8961C233.888 54.7176 233.689 54.5781 233.431 54.4777C233.176 54.3772 232.879 54.327 232.544 54.327H231.385V52.1843H232.544C232.853 52.1843 233.126 52.134 233.36 52.0336C233.597 51.9331 233.781 51.7937 233.911 51.6151C234.045 51.4365 234.11 51.2319 234.107 51.0012C234.11 50.778 234.057 50.5809 233.944 50.4098C233.833 50.2387 233.676 50.1047 233.476 50.0079C233.279 49.9113 233.051 49.8628 232.791 49.8628C232.508 49.8628 232.255 49.9131 232.031 50.0135C231.812 50.114 231.639 50.2535 231.512 50.432C231.386 50.6106 231.321 50.8152 231.318 51.0459H228.35C228.353 50.3465 228.545 49.729 228.924 49.1932C229.307 48.6575 229.832 48.2373 230.497 47.9322C231.162 47.6271 231.928 47.4746 232.791 47.4746C233.634 47.4746 234.379 47.6179 235.028 47.9043C235.678 48.1907 236.186 48.5851 236.55 49.0873C236.918 49.5858 237.101 50.1568 237.097 50.8004C237.104 51.4402 236.884 51.9648 236.439 52.3739C235.996 52.7831 235.434 53.025 234.754 53.0993V53.1886C235.676 53.2891 236.37 53.5718 236.834 54.0368C237.3 54.4981 237.528 55.0785 237.521 55.7778C237.525 56.4474 237.324 57.0408 236.918 57.5577C236.516 58.0749 235.956 58.4804 235.239 58.7743C234.526 59.0681 233.701 59.2152 232.768 59.2152Z" fill="white"/>
<path d="M223.717 53.3448C223.717 54.6171 223.471 55.6904 222.976 56.5646C222.482 57.4351 221.814 58.0954 220.974 58.5455C220.132 58.9918 219.196 59.2152 218.161 59.2152C217.12 59.2152 216.18 58.99 215.338 58.5399C214.501 58.0861 213.836 57.4239 213.342 56.5534C212.85 55.6792 212.605 54.6096 212.605 53.3448C212.605 52.0727 212.85 51.0012 213.342 50.1308C213.836 49.2565 214.501 48.5962 215.338 48.1499C216.18 47.6997 217.12 47.4746 218.161 47.4746C219.196 47.4746 220.132 47.6997 220.974 48.1499C221.814 48.5962 222.482 49.2565 222.976 50.1308C223.471 51.0012 223.717 52.0727 223.717 53.3448ZM220.526 53.3448C220.526 52.6604 220.436 52.0838 220.254 51.6151C220.076 51.1426 219.809 50.7855 219.456 50.5436C219.106 50.2982 218.674 50.1754 218.161 50.1754C217.648 50.1754 217.215 50.2982 216.862 50.5436C216.512 50.7855 216.247 51.1426 216.064 51.6151C215.886 52.0838 215.796 52.6604 215.796 53.3448C215.796 54.0294 215.886 54.6078 216.064 55.0803C216.247 55.549 216.512 55.9061 216.862 56.1517C217.215 56.3934 217.648 56.5144 218.161 56.5144C218.674 56.5144 219.106 56.3934 219.456 56.1517C219.809 55.9061 220.076 55.549 220.254 55.0803C220.436 54.6078 220.526 54.0294 220.526 53.3448Z" fill="white"/>
<path d="M212.031 47.6309V50.1308H207.099V59.0589H203.997V47.6309H212.031Z" fill="white"/>
<path d="M202.562 53.3448C202.562 54.6171 202.314 55.6904 201.82 56.5646C201.325 57.4351 200.659 58.0954 199.817 58.5455C198.977 58.9918 198.04 59.2152 197.006 59.2152C195.965 59.2152 195.023 58.99 194.183 58.5399C193.346 58.0861 192.681 57.4239 192.187 56.5534C191.695 55.6792 191.45 54.6096 191.45 53.3448C191.45 52.0727 191.695 51.0012 192.187 50.1308C192.681 49.2565 193.346 48.5962 194.183 48.1499C195.023 47.6997 195.965 47.4746 197.006 47.4746C198.04 47.4746 198.977 47.6997 199.817 48.1499C200.659 48.5962 201.325 49.2565 201.82 50.1308C202.314 51.0012 202.562 52.0727 202.562 53.3448ZM199.371 53.3448C199.371 52.6604 199.28 52.0838 199.099 51.6151C198.919 51.1426 198.654 50.7855 198.3 50.5436C197.951 50.2982 197.519 50.1754 197.006 50.1754C196.493 50.1754 196.06 50.2982 195.707 50.5436C195.357 50.7855 195.09 51.1426 194.909 51.6151C194.73 52.0838 194.641 52.6604 194.641 53.3448C194.641 54.0294 194.73 54.6078 194.909 55.0803C195.09 55.549 195.357 55.9061 195.707 56.1517C196.06 56.3934 196.493 56.5144 197.006 56.5144C197.519 56.5144 197.951 56.3934 198.3 56.1517C198.654 55.9061 198.919 55.549 199.099 55.0803C199.28 54.6078 199.371 54.0294 199.371 53.3448Z" fill="white"/>
<path d="M179.712 59.0589V47.6309H182.814V52.095H186.92V47.6309H190.021V59.0589H186.92V54.5949H182.814V59.0589H179.712Z" fill="white"/>
<path d="M167.871 47.6309H170.861V51.2246C170.861 51.5817 170.922 51.8736 171.045 52.1006C171.172 52.3276 171.382 52.4949 171.675 52.6028C171.972 52.7107 172.378 52.7646 172.891 52.7646C172.984 52.7646 173.135 52.7628 173.343 52.759C173.555 52.7515 173.783 52.7422 174.03 52.7311C174.275 52.7162 174.5 52.6994 174.704 52.6809C174.912 52.6587 175.06 52.6344 175.145 52.6084V54.9521C175.048 54.9855 174.888 55.0152 174.666 55.0413C174.442 55.0636 174.202 55.084 173.946 55.1026C173.693 55.1175 173.465 55.1306 173.264 55.1417C173.063 55.1492 172.94 55.1528 172.891 55.1528C171.887 55.1528 171.007 55.0096 170.252 54.7233C169.498 54.4368 168.912 54.0034 168.495 53.4231C168.079 52.8427 167.871 52.1099 167.871 51.2246V47.6309ZM174.565 47.6309H177.577V59.0589H174.565V47.6309Z" fill="white"/>
<path d="M155.827 47.6309H158.928V53.6128H159.017L163.078 47.6309H165.711V59.0589H162.61V53.0547H162.543L158.414 59.0589H155.827V47.6309Z" fill="white"/>
<path d="M142.683 61.8044V56.6707H143.486C143.754 56.507 143.996 56.2764 144.211 55.9788C144.431 55.6811 144.617 55.2551 144.769 54.7009C144.926 54.1466 145.041 53.4044 145.115 52.4745L145.495 47.6309H153.573V56.6707H154.777V61.8044H151.788V59.0589H145.673V61.8044H142.683ZM147.034 56.6707H150.583V50.1308H148.283L148.105 52.4745C148.053 53.1738 147.973 53.7857 147.866 54.3103C147.761 54.831 147.636 55.285 147.492 55.6718C147.35 56.0549 147.198 56.388 147.034 56.6707Z" fill="white"/>
<path d="M133.29 59.0589V47.6309H141.524V50.1308H136.392V52.095H141.1V54.5949H136.392V56.5591H141.502V59.0589H133.29Z" fill="white"/>
<path d="M118.654 47.6309H122.515L125.17 54.1039H125.304L127.959 47.6309H131.82V59.0589H128.785V52.4521H128.696L126.152 58.9697H124.322L121.778 52.4075H121.689V59.0589H118.654V47.6309Z" fill="white"/>
<path d="M114.056 59.0589H110.954V50.1085H109.861C109.5 50.1085 109.19 50.1587 108.929 50.2592C108.669 50.3558 108.468 50.5083 108.327 50.7167C108.189 50.9213 108.12 51.1873 108.12 51.5147C108.12 51.8383 108.189 52.1006 108.327 52.3014C108.468 52.5023 108.669 52.6492 108.929 52.7422C109.19 52.8316 109.5 52.8762 109.861 52.8762H112.182V55.2868H109.236C108.37 55.2868 107.609 55.1435 106.955 54.8571C106.3 54.5707 105.791 54.1466 105.426 53.5849C105.065 53.0231 104.885 52.333 104.885 51.5147C104.885 50.7036 105.062 50.008 105.415 49.4277C105.768 48.8474 106.263 48.4028 106.899 48.0941C107.539 47.7854 108.28 47.6309 109.125 47.6309H114.056V59.0589ZM107.362 53.8137H110.664L107.875 59.0589H104.506L107.362 53.8137Z" fill="white"/>
<path d="M103.147 47.6309V59.0589H100.046V47.6309H103.147Z" fill="white"/>
<path d="M89.7363 59.0589V47.6309H94.6678C95.5158 47.6309 96.2577 47.7983 96.8936 48.1332C97.5296 48.4679 98.0242 48.9385 98.3776 49.5449C98.7308 50.1512 98.9075 50.86 98.9075 51.6709C98.9075 52.4894 98.7253 53.198 98.3608 53.797C98 54.3958 97.4923 54.8571 96.8378 55.1808C96.1871 55.5045 95.4264 55.6663 94.5563 55.6663H91.6107V53.2557H93.9314C94.2959 53.2557 94.6063 53.1923 94.8631 53.0658C95.1233 52.9357 95.3223 52.7515 95.4599 52.5134C95.6013 52.2754 95.6719 51.9945 95.6719 51.6709C95.6719 51.3436 95.6013 51.0646 95.4599 50.8339C95.3223 50.5995 95.1233 50.421 94.8631 50.2983C94.6063 50.1718 94.2959 50.1085 93.9314 50.1085H92.8379V59.0589H89.7363Z" fill="white"/>
<path d="M88.3012 53.3448C88.3012 54.6171 88.0539 55.6904 87.5592 56.5646C87.0646 57.4351 86.3969 58.0954 85.5564 58.5455C84.7159 58.9918 83.7788 59.2152 82.7448 59.2152C81.7035 59.2152 80.7627 58.99 79.9221 58.5399C79.0853 58.0861 78.4196 57.4239 77.9249 56.5534C77.4341 55.6792 77.1886 54.6096 77.1886 53.3448C77.1886 52.0727 77.4341 51.0012 77.9249 50.1308C78.4196 49.2565 79.0853 48.5962 79.9221 48.1499C80.7627 47.6997 81.7035 47.4746 82.7448 47.4746C83.7788 47.4746 84.7159 47.6997 85.5564 48.1499C86.3969 48.5962 87.0646 49.2565 87.5592 50.1308C88.0539 51.0012 88.3012 52.0727 88.3012 53.3448ZM85.1102 53.3448C85.1102 52.6604 85.0191 52.0838 84.8369 51.6151C84.6584 51.1426 84.3924 50.7855 84.0392 50.5436C83.6894 50.2982 83.2582 50.1754 82.7448 50.1754C82.2317 50.1754 81.7984 50.2982 81.445 50.5436C81.0955 50.7855 80.8296 51.1426 80.6473 51.6151C80.4688 52.0838 80.3796 52.6604 80.3796 53.3448C80.3796 54.0294 80.4688 54.6078 80.6473 55.0803C80.8296 55.549 81.0955 55.9061 81.445 56.1517C81.7984 56.3934 82.2317 56.5144 82.7448 56.5144C83.2582 56.5144 83.6894 56.3934 84.0392 56.1517C84.3924 55.9061 84.6584 55.549 84.8369 55.0803C85.0191 54.6078 85.1102 54.0294 85.1102 53.3448Z" fill="white"/>
<path d="M66.673 50.1308V47.6309H76.603V50.1308H73.1666V59.0589H70.1095V50.1308H66.673Z" fill="white"/>
<path d="M58.892 59.0589H55.5449L59.316 47.6309H63.5559L67.327 59.0589H63.9798L61.4805 50.7781H61.3913L58.892 59.0589ZM58.2673 54.5502H64.56V56.8716H58.2673V54.5502Z" fill="white"/>
<path d="M47.0417 59.0589V47.6309H51.9732C52.8211 47.6309 53.5632 47.7983 54.1992 48.1332C54.835 48.4679 55.3297 48.9385 55.6829 49.5449C56.0363 50.1512 56.213 50.86 56.213 51.6709C56.213 52.4894 56.0307 53.198 55.6662 53.797C55.3055 54.3958 54.7978 54.8571 54.1433 55.1808C53.4924 55.5045 52.732 55.6663 51.8616 55.6663H48.9161V53.2557H51.2369C51.6014 53.2557 51.9118 53.1923 52.1684 53.0658C52.4288 52.9357 52.6277 52.7515 52.7654 52.5134C52.9067 52.2754 52.9774 51.9945 52.9774 51.6709C52.9774 51.3436 52.9067 51.0646 52.7654 50.8339C52.6277 50.5995 52.4288 50.421 52.1684 50.2983C51.9118 50.1718 51.6014 50.1085 51.2369 50.1085H50.1435V59.0589H47.0417Z" fill="white"/>
<path d="M45.6067 53.3448C45.6067 54.6171 45.3594 55.6904 44.8647 56.5646C44.3701 57.4351 43.7025 58.0954 42.862 58.5455C42.0214 58.9918 41.0843 59.2152 40.0504 59.2152C39.0091 59.2152 38.0682 58.99 37.2277 58.5399C36.3908 58.0861 35.7252 57.4239 35.2304 56.5534C34.7396 55.6792 34.4941 54.6096 34.4941 53.3448C34.4941 52.0727 34.7396 51.0012 35.2304 50.1308C35.7252 49.2565 36.3908 48.5962 37.2277 48.1499C38.0682 47.6997 39.0091 47.4746 40.0504 47.4746C41.0843 47.4746 42.0214 47.6997 42.862 48.1499C43.7025 48.5962 44.3701 49.2565 44.8647 50.1308C45.3594 51.0012 45.6067 52.0727 45.6067 53.3448ZM42.4158 53.3448C42.4158 52.6604 42.3246 52.0838 42.1424 51.6151C41.9639 51.1426 41.6979 50.7855 41.3447 50.5436C40.9951 50.2982 40.5637 50.1754 40.0504 50.1754C39.5372 50.1754 39.1039 50.2982 38.7506 50.5436C38.401 50.7855 38.1351 51.1426 37.9528 51.6151C37.7743 52.0838 37.6851 52.6604 37.6851 53.3448C37.6851 54.0294 37.7743 54.6078 37.9528 55.0803C38.1351 55.549 38.401 55.9061 38.7506 56.1517C39.1039 56.3934 39.5372 56.5144 40.0504 56.5144C40.5637 56.5144 40.9951 56.3934 41.3447 56.1517C41.6979 55.9061 41.9639 55.549 42.1424 55.0803C42.3246 54.6078 42.4158 54.0294 42.4158 53.3448Z" fill="white"/>
<path d="M24.3829 59.0589V47.6309H32.4161V50.1308H27.4845V51.4701H28.6449C29.6045 51.4701 30.4431 51.6244 31.1608 51.9332C31.8823 52.2419 32.4421 52.6772 32.84 53.2389C33.2416 53.8006 33.4425 54.461 33.4425 55.2198C33.4425 55.9788 33.2416 56.6465 32.84 57.2231C32.4421 57.7997 31.8823 58.2498 31.1608 58.5734C30.4431 58.8971 29.6045 59.0589 28.6449 59.0589H24.3829ZM27.4845 56.6261H28.6449C29.0169 56.6261 29.3292 56.5647 29.5821 56.4419C29.8388 56.3192 30.0321 56.1499 30.1624 55.934C30.2961 55.7183 30.3631 55.4728 30.3631 55.1976C30.3631 54.807 30.2162 54.4832 29.9224 54.2266C29.6287 53.9662 29.2028 53.8359 28.6449 53.8359H27.4845V56.6261Z" fill="white"/>
<path d="M14.8475 59.0589H11.5004L15.2715 47.6309H19.5114L23.2825 59.0589H19.9353L17.436 50.7781H17.3468L14.8475 59.0589ZM14.2228 54.5502H20.5155V56.8716H14.2228V54.5502Z" fill="white"/>
<path d="M-0.143478 59.0589V56.6707L0.168924 56.6261C0.548257 56.5665 0.862531 56.4027 1.1117 56.135C1.3646 55.8634 1.55799 55.4337 1.69189 54.8459C1.82949 54.2544 1.91689 53.4491 1.95407 52.4299L2.13259 47.6309H10.4112V59.0589H7.42111V50.0415H4.98884L4.81032 53.6352C4.74338 54.9668 4.56487 56.0289 4.27478 56.8214C3.98468 57.6137 3.54397 58.1847 2.95265 58.5343C2.36131 58.8841 1.58216 59.0589 0.615203 59.0589H-0.143478Z" fill="white"/>
</g>
<defs>
<clipPath id="clip0_6_357">
<rect width="314" height="62" fill="white"/>
</clipPath>
</defs>
</svg>
