<svg width="406" height="80" viewBox="0 0 406 80" fill="none" xmlns="http://www.w3.org/2000/svg">
<g clip-path="url(#clip0_6_47)">
<path d="M362.795 5.65625H375.31V20.9471L388.431 5.65625H405.062L390.31 20.9196L405.725 46.1191H390.31L381.774 29.4758L375.31 36.2381V46.1191H362.795V5.65625Z" fill="#15161A"/>
<path d="M341.965 5.65625H354.452V29.7793C354.452 32.1715 354.074 34.4347 353.319 36.5691C352.583 38.6853 351.414 40.5437 349.81 42.1446C348.226 43.727 346.559 44.8403 344.81 45.4843C342.38 46.3859 339.46 46.8367 336.054 46.8367C334.082 46.8367 331.927 46.6987 329.588 46.4227C327.268 46.1466 325.326 45.6038 323.759 44.7943C322.193 43.9662 320.757 42.7978 319.45 41.289C318.161 39.7801 317.276 38.2252 316.798 36.6244C316.024 34.0484 315.637 31.7667 315.637 29.7793V5.65625H328.124V30.3591C328.124 32.567 328.732 34.2967 329.948 35.548C331.182 36.7809 332.886 37.3972 335.058 37.3972C337.213 37.3972 338.899 36.7899 340.113 35.5755C341.347 34.3427 341.965 32.6038 341.965 30.3591V5.65625Z" fill="#15161A"/>
<path d="M272.734 46.1191V5.65625H293.592C297.459 5.65625 300.416 5.98745 302.461 6.64988C304.505 7.31231 306.152 8.54513 307.406 10.3484C308.657 12.1332 309.283 14.3138 309.283 16.8898C309.283 19.1347 308.805 21.0759 307.846 22.7135C306.89 24.3329 305.572 25.6485 303.897 26.6605C302.829 27.3046 301.365 27.8381 299.503 28.2614C300.997 28.7582 302.083 29.255 302.764 29.7518C303.224 30.0831 303.887 30.7914 304.753 31.877C305.637 32.9626 306.227 33.7999 306.52 34.3887L312.571 46.1191H298.427L291.741 33.7539C290.895 32.153 290.139 31.1134 289.476 30.6351C288.573 30.0093 287.551 29.6966 286.41 29.6966H285.304V46.1191H272.734ZM285.304 22.0512H290.582C291.152 22.0512 292.256 21.8672 293.895 21.4991C294.726 21.3336 295.397 20.9103 295.912 20.2295C296.447 19.5487 296.713 18.7667 296.713 17.8834C296.713 16.577 296.3 15.5742 295.471 14.8749C294.641 14.1758 293.087 13.826 290.802 13.826H285.304V22.0512Z" fill="#15161A"/>
<path d="M228.699 5.65625H247.292C250.956 5.65625 253.913 6.15306 256.16 7.14669C258.425 8.14032 260.294 9.56636 261.768 11.4248C263.24 13.2832 264.309 15.4454 264.972 17.9111C265.635 20.3768 265.967 22.9895 265.967 25.7497C265.967 30.0738 265.47 33.4319 264.474 35.824C263.498 38.1977 262.136 40.1941 260.387 41.8133C258.636 43.4142 256.758 44.4815 254.751 45.015C252.006 45.7511 249.519 46.1191 247.292 46.1191H228.699V5.65625ZM241.213 14.8196V36.9279H244.281C246.896 36.9279 248.756 36.6428 249.862 36.0723C250.966 35.4835 251.831 34.4715 252.457 33.0363C253.083 31.5827 253.398 29.2365 253.398 25.998C253.398 21.7107 252.697 18.7759 251.298 17.1933C249.897 15.6109 247.577 14.8196 244.336 14.8196H241.213Z" fill="#D40000"/>
<path d="M147.391 17.3586L136.755 15.4542C137.639 12.0685 139.334 9.47396 141.838 7.67071C144.361 5.86746 147.925 4.96582 152.53 4.96582C157.815 4.96582 161.637 5.95025 163.994 7.91913C166.352 9.88799 167.53 12.3628 167.53 15.3437C167.53 17.0919 167.052 18.6742 166.094 20.0911C165.136 21.508 163.69 22.75 161.757 23.8172C163.322 24.2037 164.519 24.6545 165.348 25.1695C166.692 25.9976 167.733 27.0924 168.47 28.4541C169.225 29.7974 169.602 31.4075 169.602 33.2842C169.602 35.6396 168.985 37.9028 167.751 40.074C166.517 42.2269 164.74 43.8923 162.42 45.0699C160.099 46.229 157.051 46.8087 153.275 46.8087C149.592 46.8087 146.682 46.3762 144.546 45.5114C142.428 44.6466 140.678 43.3862 139.297 41.7301C137.934 40.0557 136.884 37.958 136.147 35.4371L147.391 33.9467C147.833 36.2099 148.515 37.7833 149.435 38.6664C150.375 39.5312 151.563 39.9637 152.999 39.9637C154.509 39.9637 155.762 39.4117 156.756 38.3076C157.769 37.2035 158.276 35.7316 158.276 33.8915C158.276 32.0146 157.788 30.561 156.811 29.5306C155.854 28.5001 154.546 27.985 152.889 27.985C152.005 27.985 150.789 28.2058 149.242 28.6473L149.822 20.6154C150.448 20.7074 150.936 20.7534 151.287 20.7534C152.76 20.7534 153.984 20.2844 154.961 19.3458C155.955 18.4075 156.452 17.2941 156.452 16.0063C156.452 14.7734 156.084 13.7889 155.347 13.0528C154.611 12.3168 153.598 11.9489 152.309 11.9489C150.982 11.9489 149.905 12.3537 149.076 13.1633C148.248 13.9546 147.686 15.353 147.391 17.3586Z" fill="#15161A"/>
<path d="M94.4327 5.65625H113.025C116.69 5.65625 119.646 6.15306 121.893 7.14669C124.158 8.14032 126.027 9.56636 127.501 11.4248C128.974 13.2832 130.042 15.4454 130.705 17.9111C131.368 20.3768 131.7 22.9895 131.7 25.7497C131.7 30.0738 131.203 33.4319 130.208 35.824C129.232 38.1977 127.869 40.1941 126.119 41.8133C124.37 43.4142 122.491 44.4815 120.484 45.015C117.74 45.7511 115.253 46.1191 113.025 46.1191H94.4327V5.65625ZM106.947 14.8196V36.9279H110.014C112.629 36.9279 114.489 36.6428 115.594 36.0723C116.699 35.4835 117.565 34.4715 118.191 33.0363C118.817 31.5827 119.13 29.2365 119.13 25.998C119.13 21.7107 118.43 18.7759 117.03 17.1933C115.631 15.6109 113.31 14.8196 110.069 14.8196H106.947Z" fill="#D40000"/>
<path d="M53.3531 5.65625H86.8908V14.2953H65.8952V20.7263H85.3713V28.979H65.8952V36.9556H87.4986V46.1191H53.3531V5.65625Z" fill="#D40000"/>
<path d="M-0.185501 5.65625H16.2795L22.6334 30.2761L28.9597 5.65625H45.3693V46.1191H35.1478V15.2614L27.2192 46.1191H17.9646L10.0636 15.2614V46.1191H-0.185501V5.65625Z" fill="#D40000"/>
<path d="M173.98 32.8805C173.705 32.8805 173.482 32.6574 173.482 32.3821V15.6195C173.482 15.3442 173.705 15.1211 173.98 15.1211H188.669C188.945 15.1211 189.167 15.3442 189.167 15.6195V32.3821C189.167 32.6574 188.945 32.8805 188.669 32.8805H173.98Z" fill="#15161A"/>
<path d="M209.134 35.5677C209.134 35.2925 208.911 35.0693 208.636 35.0693H191.827C191.552 35.0693 191.33 35.2925 191.33 35.5677V50.2427C191.33 50.518 191.552 50.7411 191.827 50.7411H208.636C208.911 50.7411 209.134 50.518 209.134 50.2427V35.5677Z" fill="#15161A"/>
<path d="M224.82 32.4115C224.82 32.6867 224.596 32.9098 224.32 32.9098H191.827C191.552 32.9098 191.33 32.6867 191.33 32.4115V-0.052354C191.33 -0.327626 191.552 -0.550781 191.827 -0.550781H208.636C208.911 -0.550781 209.134 -0.327626 209.134 -0.052354V14.6226C209.134 14.898 209.358 15.1211 209.633 15.1211H224.32C224.596 15.1211 224.82 15.3443 224.82 15.6195V32.4115Z" fill="#D40000"/>
<path d="M394.877 76.4747V73.3615H395.597C396.02 73.3615 396.355 73.3278 396.601 73.2606C396.851 73.1885 397.043 73.0636 397.177 72.8857C397.317 72.7033 397.435 72.4487 397.531 72.1219L397.675 71.6894L392.136 61.5137H396.233L399.32 67.5096L401.685 61.5137H405.725L400.646 73.0443C400.369 73.6497 400.036 74.2143 399.651 74.7378C399.267 75.2568 398.789 75.6772 398.216 75.999C397.644 76.3161 396.935 76.4747 396.089 76.4747H394.877Z" fill="#15161A"/>
<path d="M386.63 76.2728L382.101 70.3058H381.538V76.2728H377.528V61.5137H381.538V67.0773H382.057L386.298 61.5137H391.347L385.721 68.605L391.666 76.2728H386.63Z" fill="#15161A"/>
<path d="M365.381 76.4747V73.3615H366.101C366.524 73.3615 366.859 73.3278 367.105 73.2606C367.354 73.1885 367.547 73.0636 367.681 72.8857C367.821 72.7033 367.939 72.4487 368.035 72.1219L368.179 71.6894L362.64 61.5137H366.737L369.824 67.5096L372.189 61.5137H376.229L371.15 73.0443C370.873 73.6497 370.54 74.2143 370.154 74.7378C369.771 75.2568 369.293 75.6772 368.72 75.999C368.147 76.3161 367.439 76.4747 366.593 76.4747H365.381Z" fill="#15161A"/>
<path d="M349.915 76.2728V61.5137H356.292C357.388 61.5137 358.348 61.7299 359.171 62.1624C359.991 62.5947 360.631 63.2024 361.089 63.9857C361.546 64.7687 361.774 65.684 361.774 66.7313C361.774 67.7884 361.538 68.7035 361.068 69.4771C360.601 70.2505 359.944 70.8462 359.098 71.2644C358.256 71.6823 357.272 71.8913 356.148 71.8913H352.339V68.778H355.34C355.812 68.778 356.213 68.6963 356.544 68.5329C356.88 68.3648 357.138 68.1269 357.315 67.8194C357.498 67.512 357.591 67.1493 357.591 66.7313C357.591 66.3086 357.498 65.9483 357.315 65.6504C357.138 65.3477 356.88 65.1171 356.544 64.9586C356.213 64.7952 355.812 64.7135 355.34 64.7135H353.927V76.2728H349.915Z" fill="#15161A"/>
<path d="M332.921 79.8186V73.1885H333.96C334.306 72.9771 334.619 72.6793 334.897 72.2949C335.182 71.9104 335.422 71.3603 335.619 70.6445C335.822 69.9287 335.969 68.9701 336.066 67.7691L336.558 61.5137H347.002V73.1885H348.559V79.8186H344.692V76.2728H336.788V79.8186H332.921ZM338.547 73.1885H343.136V64.7424H340.162L339.932 67.7691C339.865 68.6723 339.761 69.4626 339.621 70.1401C339.487 70.8126 339.326 71.3989 339.139 71.8984C338.956 72.3932 338.759 72.8234 338.547 73.1885Z" fill="#15161A"/>
<path d="M331.099 67.3955V70.3934H324.175V67.3955H331.099Z" fill="#15161A"/>
<path d="M314.558 76.2728H308.874V61.5137H314.501C316.02 61.5137 317.333 61.8092 318.439 62.4001C319.55 62.9864 320.406 63.8319 321.007 64.937C321.613 66.0371 321.916 67.3559 321.916 68.8933C321.916 70.4308 321.615 71.7519 321.014 72.857C320.412 73.9571 319.562 74.8027 318.46 75.3937C317.36 75.9799 316.06 76.2728 314.558 76.2728ZM312.886 72.8714H314.415C315.145 72.8714 315.769 72.7536 316.282 72.5183C316.802 72.2827 317.195 71.8768 317.465 71.3004C317.74 70.7237 317.876 69.9214 317.876 68.8933C317.876 67.8653 317.736 67.0628 317.459 66.4863C317.183 65.9097 316.78 65.5038 316.247 65.2684C315.717 65.0329 315.068 64.9153 314.299 64.9153H312.886V72.8714Z" fill="#15161A"/>
<path d="M300.967 76.4753C299.804 76.4753 298.769 76.2757 297.866 75.877C296.967 75.4734 296.259 74.9186 295.745 74.2123C295.229 73.5061 294.972 72.6942 294.966 71.7765H299.006C299.009 72.06 299.096 72.3145 299.265 72.5404C299.438 72.7614 299.675 72.9344 299.972 73.0592C300.271 73.1843 300.611 73.2466 300.997 73.2466C301.367 73.2466 301.693 73.1817 301.977 73.0522C302.26 72.9175 302.482 72.7325 302.64 72.4972C302.799 72.2617 302.876 71.9927 302.872 71.69C302.876 71.3921 302.786 71.1279 302.597 70.8973C302.416 70.6667 302.158 70.4866 301.825 70.3568C301.495 70.2271 301.111 70.1622 300.678 70.1622H299.179V67.395H300.678C301.078 67.395 301.43 67.3301 301.733 67.2003C302.04 67.0706 302.278 66.8905 302.445 66.6599C302.618 66.4293 302.703 66.1651 302.699 65.867C302.703 65.5788 302.634 65.3242 302.488 65.1032C302.345 64.8823 302.142 64.7093 301.882 64.5842C301.629 64.4594 301.333 64.3969 300.997 64.3969C300.631 64.3969 300.304 64.4618 300.015 64.5915C299.732 64.7213 299.507 64.9013 299.344 65.1319C299.181 65.3626 299.096 65.6268 299.092 65.9248H295.255C295.259 65.0215 295.507 64.2241 295.997 63.5321C296.493 62.8402 297.172 62.2974 298.031 61.9035C298.891 61.5095 299.881 61.3125 300.997 61.3125C302.087 61.3125 303.051 61.4975 303.889 61.8675C304.73 62.2373 305.387 62.7467 305.857 63.3952C306.333 64.0391 306.569 64.7765 306.566 65.6077C306.573 66.434 306.29 67.1115 305.713 67.6399C305.141 68.1684 304.415 68.4807 303.535 68.5767V68.6921C304.728 68.8218 305.625 69.1869 306.225 69.7875C306.827 70.3832 307.122 71.1328 307.113 72.036C307.118 72.9008 306.859 73.6671 306.333 74.3348C305.814 75.0026 305.09 75.5263 304.163 75.9059C303.24 76.2854 302.174 76.4753 300.967 76.4753Z" fill="#15161A"/>
<path d="M289.265 68.8938C289.265 70.5369 288.947 71.9231 288.307 73.0522C287.668 74.1763 286.804 75.0291 285.718 75.6105C284.629 76.1869 283.419 76.4753 282.081 76.4753C280.735 76.4753 279.519 76.1845 278.431 75.6032C277.349 75.0171 276.489 74.1619 275.849 73.0376C275.214 71.9086 274.897 70.5273 274.897 68.8938C274.897 67.2508 275.214 65.867 275.849 64.7429C276.489 63.6138 277.349 62.761 278.431 62.1846C279.519 61.6033 280.735 61.3125 282.081 61.3125C283.419 61.3125 284.629 61.6033 285.718 62.1846C286.804 62.761 287.668 63.6138 288.307 64.7429C288.947 65.867 289.265 67.2508 289.265 68.8938ZM285.139 68.8938C285.139 68.0099 285.023 67.2652 284.787 66.6599C284.557 66.0497 284.212 65.5884 283.756 65.2761C283.303 64.9591 282.744 64.8005 282.081 64.8005C281.418 64.8005 280.857 64.9591 280.401 65.2761C279.948 65.5884 279.606 66.0497 279.37 66.6599C279.139 67.2652 279.023 68.0099 279.023 68.8938C279.023 69.7779 279.139 70.5249 279.37 71.1352C279.606 71.7405 279.948 72.2017 280.401 72.5188C280.857 72.831 281.418 72.9873 282.081 72.9873C282.744 72.9873 283.303 72.831 283.756 72.5188C284.212 72.2017 284.557 71.7405 284.787 71.1352C285.023 70.5249 285.139 69.7779 285.139 68.8938Z" fill="#15161A"/>
<path d="M274.155 61.5137V64.7424H267.778V76.2728H263.767V61.5137H274.155Z" fill="#15161A"/>
<path d="M261.912 68.8938C261.912 70.5369 261.591 71.9231 260.952 73.0522C260.312 74.1763 259.45 75.0291 258.362 75.6105C257.276 76.1869 256.064 76.4753 254.728 76.4753C253.382 76.4753 252.164 76.1845 251.078 75.6032C249.995 75.0171 249.136 74.1619 248.496 73.0376C247.86 71.9086 247.544 70.5273 247.544 68.8938C247.544 67.2508 247.86 65.867 248.496 64.7429C249.136 63.6138 249.995 62.761 251.078 62.1846C252.164 61.6033 253.382 61.3125 254.728 61.3125C256.064 61.3125 257.276 61.6033 258.362 62.1846C259.45 62.761 260.312 63.6138 260.952 64.7429C261.591 65.867 261.912 67.2508 261.912 68.8938ZM257.786 68.8938C257.786 68.0099 257.668 67.2652 257.433 66.6599C257.201 66.0497 256.859 65.5884 256.4 65.2761C255.95 64.9591 255.391 64.8005 254.728 64.8005C254.065 64.8005 253.504 64.9591 253.047 65.2761C252.595 65.5884 252.25 66.0497 252.016 66.6599C251.784 67.2652 251.67 68.0099 251.67 68.8938C251.67 69.7779 251.784 70.5249 252.016 71.1352C252.25 71.7405 252.595 72.2017 253.047 72.5188C253.504 72.831 254.065 72.9873 254.728 72.9873C255.391 72.9873 255.95 72.831 256.4 72.5188C256.859 72.2017 257.201 71.7405 257.433 71.1352C257.668 70.5249 257.786 69.7779 257.786 68.8938Z" fill="#15161A"/>
<path d="M232.367 76.2728V61.5137H236.377V67.279H241.686V61.5137H245.696V76.2728H241.686V70.5077H236.377V76.2728H232.367Z" fill="#15161A"/>
<path d="M217.056 61.5137H220.922V66.1549C220.922 66.6161 221.001 66.9932 221.16 67.2863C221.324 67.5794 221.595 67.7955 221.975 67.9349C222.359 68.0742 222.884 68.1438 223.547 68.1438C223.667 68.1438 223.862 68.1415 224.132 68.1366C224.405 68.1269 224.7 68.1149 225.019 68.1006C225.336 68.0813 225.627 68.0597 225.891 68.0357C226.16 68.007 226.351 67.9757 226.461 67.9421V70.9689C226.336 71.0122 226.129 71.0505 225.842 71.0841C225.552 71.113 225.241 71.1393 224.911 71.1633C224.584 71.1826 224.289 71.1995 224.029 71.2139C223.77 71.2235 223.61 71.2282 223.547 71.2282C222.249 71.2282 221.111 71.0432 220.135 70.6734C219.159 70.3034 218.402 69.7437 217.863 68.9943C217.325 68.2447 217.056 67.2983 217.056 66.1549V61.5137ZM225.712 61.5137H229.606V76.2728H225.712V61.5137Z" fill="#15161A"/>
<path d="M201.483 61.5137H205.493V69.2393H205.608L210.859 61.5137H214.264V76.2728H210.253V68.5185H210.167L204.828 76.2728H201.483V61.5137Z" fill="#15161A"/>
<path d="M184.488 79.8186V73.1885H185.527C185.873 72.9771 186.186 72.6793 186.464 72.2949C186.748 71.9104 186.989 71.3603 187.186 70.6445C187.388 69.9287 187.537 68.9701 187.633 67.7691L188.123 61.5137H198.569V73.1885H200.125V79.8186H196.261V76.2728H188.354V79.8186H184.488ZM190.114 73.1885H194.702V64.7424H191.729L191.499 67.7691C191.432 68.6723 191.328 69.4626 191.19 70.1401C191.054 70.8126 190.893 71.3989 190.706 71.8984C190.523 72.3932 190.326 72.8234 190.114 73.1885Z" fill="#15161A"/>
<path d="M172.343 76.2728V61.5137H182.99V64.7424H176.354V67.279H182.441V70.5077H176.354V73.0444H182.961V76.2728H172.343Z" fill="#15161A"/>
<path d="M153.419 61.5137H158.411L161.844 69.8735H162.018L165.451 61.5137H170.442V76.2728H166.519V67.7402H166.403L163.114 76.1576H160.748L157.459 67.6826H157.343V76.2728H153.419V61.5137Z" fill="#15161A"/>
<path d="M147.474 76.2728H143.463V64.7135H142.05C141.583 64.7135 141.182 64.7783 140.845 64.9081C140.508 65.0329 140.249 65.2299 140.066 65.499C139.888 65.7633 139.799 66.1067 139.799 66.5296C139.799 66.9475 139.888 67.2863 140.066 67.5456C140.249 67.8051 140.508 67.9948 140.845 68.1149C141.182 68.2303 141.583 68.2879 142.05 68.2879H145.05V71.4012H141.242C140.121 71.4012 139.138 71.2162 138.292 70.8462C137.445 70.4764 136.787 69.9287 136.315 69.2033C135.849 68.4776 135.616 67.5865 135.616 66.5296C135.616 65.4821 135.844 64.5837 136.301 63.8343C136.758 63.0849 137.397 62.5106 138.22 62.1119C139.047 61.7132 140.006 61.5137 141.098 61.5137H147.474V76.2728ZM138.818 69.4988H143.088L139.482 76.2728H135.125L138.818 69.4988Z" fill="#15161A"/>
<path d="M133.369 61.5137V76.2728H129.358V61.5137H133.369Z" fill="#15161A"/>
<path d="M116.028 76.2728V61.5137H122.405C123.501 61.5137 124.461 61.7299 125.283 62.1624C126.105 62.5947 126.745 63.2024 127.202 63.9857C127.658 64.7687 127.887 65.684 127.887 66.7313C127.887 67.7884 127.651 68.7035 127.18 69.4771C126.713 70.2505 126.057 70.8462 125.211 71.2644C124.369 71.6823 123.386 71.8913 122.261 71.8913H118.452V68.778H121.453C121.924 68.778 122.325 68.6963 122.657 68.5329C122.994 68.3648 123.251 68.1269 123.429 67.8194C123.612 67.512 123.703 67.1493 123.703 66.7313C123.703 66.3086 123.612 65.9483 123.429 65.6504C123.251 65.3477 122.994 65.1171 122.657 64.9586C122.325 64.7952 121.924 64.7135 121.453 64.7135H120.039V76.2728H116.028Z" fill="#15161A"/>
<path d="M114.173 68.8938C114.173 70.5369 113.853 71.9231 113.213 73.0522C112.574 74.1763 111.711 75.0291 110.624 75.6105C109.537 76.1869 108.325 76.4753 106.989 76.4753C105.642 76.4753 104.426 76.1845 103.339 75.6032C102.257 75.0171 101.396 74.1619 100.756 73.0376C100.122 71.9086 99.8044 70.5273 99.8044 68.8938C99.8044 67.2508 100.122 65.867 100.756 64.7429C101.396 63.6138 102.257 62.761 103.339 62.1846C104.426 61.6033 105.642 61.3125 106.989 61.3125C108.325 61.3125 109.537 61.6033 110.624 62.1846C111.711 62.761 112.574 63.6138 113.213 64.7429C113.853 65.867 114.173 67.2508 114.173 68.8938ZM110.047 68.8938C110.047 68.0099 109.929 67.2652 109.694 66.6599C109.463 66.0497 109.119 65.5884 108.662 65.2761C108.21 64.9591 107.652 64.8005 106.989 64.8005C106.325 64.8005 105.765 64.9591 105.308 65.2761C104.856 65.5884 104.512 66.0497 104.276 66.6599C104.046 67.2652 103.93 68.0099 103.93 68.8938C103.93 69.7779 104.046 70.5249 104.276 71.1352C104.512 71.7405 104.856 72.2017 105.308 72.5188C105.765 72.831 106.325 72.9873 106.989 72.9873C107.652 72.9873 108.21 72.831 108.662 72.5188C109.119 72.2017 109.463 71.7405 109.694 71.1352C109.929 70.5249 110.047 69.7779 110.047 68.8938Z" fill="#15161A"/>
<path d="M86.2078 64.7424V61.5137H99.0472V64.7424H94.6039V76.2728H90.6511V64.7424H86.2078Z" fill="#15161A"/>
<path d="M76.147 76.2728H71.8192L76.6952 61.5137H82.1773L87.0533 76.2728H82.7255L79.4939 65.5783H79.3786L76.147 76.2728ZM75.3393 70.4499H83.4756V73.448H75.3393V70.4499Z" fill="#15161A"/>
<path d="M60.8246 76.2728V61.5137H67.201C68.2974 61.5137 69.2568 61.7299 70.0792 62.1624C70.9013 62.5947 71.541 63.2024 71.9977 63.9857C72.4546 64.7687 72.683 65.684 72.683 66.7313C72.683 67.7884 72.4473 68.7035 71.976 69.4771C71.5097 70.2505 70.8533 70.8462 70.0069 71.2644C69.1653 71.6823 68.1821 71.8913 67.0567 71.8913H63.2482V68.778H66.249C66.7203 68.778 67.1217 68.6963 67.4534 68.5329C67.7901 68.3648 68.0473 68.1269 68.2254 67.8194C68.408 67.512 68.4995 67.1493 68.4995 66.7313C68.4995 66.3086 68.408 65.9483 68.2254 65.6504C68.0473 65.3477 67.7901 65.1171 67.4534 64.9586C67.1217 64.7952 66.7203 64.7135 66.249 64.7135H64.8352V76.2728H60.8246Z" fill="#15161A"/>
<path d="M58.9692 68.8938C58.9692 70.5369 58.6495 71.9231 58.0098 73.0522C57.3702 74.1763 56.507 75.0291 55.4202 75.6105C54.3335 76.1869 53.1217 76.4753 51.7849 76.4753C50.4385 76.4753 49.2219 76.1845 48.1351 75.6032C47.0531 75.0171 46.1924 74.1619 45.5527 73.0376C44.9181 71.9086 44.6007 70.5273 44.6007 68.8938C44.6007 67.2508 44.9181 65.867 45.5527 64.7429C46.1924 63.6138 47.0531 62.761 48.1351 62.1846C49.2219 61.6033 50.4385 61.3125 51.7849 61.3125C53.1217 61.3125 54.3335 61.6033 55.4202 62.1846C56.507 62.761 57.3702 63.6138 58.0098 64.7429C58.6495 65.867 58.9692 67.2508 58.9692 68.8938ZM54.8433 68.8938C54.8433 68.0099 54.7254 67.2652 54.4899 66.6599C54.2591 66.0497 53.9151 65.5884 53.4584 65.2761C53.0064 64.9591 52.4486 64.8005 51.7849 64.8005C51.1213 64.8005 50.5611 64.9591 50.1042 65.2761C49.6522 65.5884 49.3085 66.0497 49.0728 66.6599C48.8419 67.2652 48.7266 68.0099 48.7266 68.8938C48.7266 69.7779 48.8419 70.5249 49.0728 71.1352C49.3085 71.7405 49.6522 72.2017 50.1042 72.5188C50.5611 72.831 51.1213 72.9873 51.7849 72.9873C52.4486 72.9873 53.0064 72.831 53.4584 72.5188C53.9151 72.2017 54.2591 71.7405 54.4899 71.1352C54.7254 70.5249 54.8433 69.7779 54.8433 68.8938Z" fill="#15161A"/>
<path d="M31.5269 76.2728V61.5137H41.9137V64.7424H35.5373V66.472H37.0377C38.2784 66.472 39.3628 66.6713 40.2908 67.07C41.2237 67.4687 41.9474 68.031 42.462 68.7564C42.9812 69.4819 43.241 70.3347 43.241 71.3147C43.241 72.2949 42.9812 73.1572 42.462 73.9019C41.9474 74.6466 41.2237 75.2279 40.2908 75.6459C39.3628 76.0639 38.2784 76.2728 37.0377 76.2728H31.5269ZM35.5373 73.1309H37.0377C37.5186 73.1309 37.9224 73.0516 38.2494 72.893C38.5814 72.7345 38.8313 72.5159 38.9997 72.2371C39.1727 71.9586 39.2593 71.6414 39.2593 71.286C39.2593 70.7815 39.0694 70.3634 38.6894 70.0319C38.3097 69.6958 37.7591 69.5275 37.0377 69.5275H35.5373V73.1309Z" fill="#15161A"/>
<path d="M19.1978 76.2728H14.8699L19.746 61.5137H25.228L30.1041 76.2728H25.7763L22.5447 65.5783H22.4294L19.1978 76.2728ZM18.39 70.4499H26.5264V73.448H18.39V70.4499Z" fill="#15161A"/>
<path d="M-0.185501 76.2728V73.1885L0.218433 73.1309C0.708908 73.054 1.11526 72.8425 1.43744 72.4966C1.76443 72.1459 2.01449 71.5909 2.18761 70.8319C2.36553 70.0679 2.47854 69.0279 2.52661 67.7115L2.75745 61.5137H13.4617V76.2728H9.59546V64.6269H6.45055L6.21974 69.2682C6.13317 70.988 5.90236 72.3596 5.52727 73.3831C5.15218 74.4064 4.58235 75.1438 3.81777 75.5954C3.05318 76.0471 2.04574 76.2728 0.795469 76.2728H-0.185501Z" fill="#15161A"/>
</g>
<defs>
<clipPath id="clip0_6_47">
<rect width="406" height="80" fill="white"/>
</clipPath>
</defs>
</svg>
